<svg width="18" height="18" viewBox="0 0 18 18" fill="none" xmlns="http://www.w3.org/2000/svg">
<path id="Dribbble" fill-rule="evenodd" clip-rule="evenodd" d="M13.2955 15.3744C13.2171 14.9109 12.8075 12.6547 11.7989 9.88524C14.2808 9.48839 16.4304 10.1689 16.5892 10.2207C16.2473 12.3626 15.0206 14.2093 13.2955 15.3744ZM9.00053 16.6867C7.13988 16.6867 5.43376 16.0253 4.10337 14.9247C4.20497 15.0072 4.27589 15.0591 4.27589 15.0591C4.27589 15.0591 5.74916 11.8462 10.3076 10.2577C10.3246 10.2514 10.3426 10.2472 10.3595 10.2419C11.4412 13.0516 11.8868 15.4051 12.0011 16.0771C11.0792 16.4687 10.0642 16.6867 9.00053 16.6867ZM1.31346 8.99947C1.31346 8.91798 1.31769 8.83756 1.31981 8.75713C1.45634 8.7603 5.25384 8.84602 9.21115 7.66183C9.43129 8.09254 9.64191 8.53172 9.83454 8.96878C9.73293 8.9963 9.63239 9.02699 9.53184 9.06085C5.38402 10.4006 3.27994 14.132 3.27994 14.132C3.27994 14.132 3.28312 14.1352 3.28312 14.1363C2.05856 12.7743 1.31346 10.9742 1.31346 8.99947ZM5.72059 2.04986C5.82325 2.18637 7.24466 4.11347 8.57506 6.47763C4.88446 7.45864 1.68072 7.41948 1.47857 7.41631C1.97707 5.03522 3.57629 3.06156 5.72059 2.04986ZM7.15893 1.53766C7.15893 1.53871 7.15788 1.53977 7.15788 1.53977C7.15788 1.53977 7.14835 1.54189 7.13459 1.54401C7.14306 1.54189 7.15047 1.54083 7.15893 1.53766ZM14.0766 3.23299C14.0575 3.26157 12.9631 4.92833 10.061 6.01517C8.74757 3.60127 7.30393 1.6837 7.18857 1.53131C7.76962 1.39056 8.37608 1.31436 9.00053 1.31436C10.9458 1.31436 12.7229 2.04033 14.0766 3.23299ZM16.6844 8.92328C16.5733 8.89894 13.9718 8.33911 11.3311 8.67141C11.2761 8.54018 11.2221 8.4079 11.1649 8.27562C11.0051 7.89888 10.8326 7.52637 10.6537 7.16021C13.6892 5.92098 14.9211 4.13993 14.936 4.11876C16.0134 5.42783 16.6664 7.09989 16.6844 8.92328ZM17.818 7.18878C17.6994 6.61097 17.5216 6.04057 17.2919 5.49662C17.0676 4.96325 16.7871 4.44894 16.4622 3.96849C16.1415 3.49227 15.771 3.04357 15.3646 2.63719C14.9571 2.22976 14.5094 1.86043 14.0321 1.53871C13.5516 1.21277 13.0372 0.934446 12.5038 0.707978C11.9598 0.479393 11.3904 0.301605 10.8125 0.184138C10.2198 0.0624375 9.61016 0 9.00053 0C8.38984 0 7.78021 0.0624375 7.18751 0.184138C6.60963 0.301605 6.04022 0.479393 5.49621 0.707978C4.96278 0.934446 4.4484 1.21277 3.96684 1.53871C3.49056 1.86043 3.04286 2.22976 2.63539 2.63719C2.22896 3.04357 1.85959 3.49227 1.53784 3.96849C1.21291 4.44894 0.93244 4.96325 0.708061 5.49662C0.477333 6.04057 0.300582 6.61097 0.182043 7.18878C0.0613865 7.78035 0 8.38991 0 8.99947C0 9.61115 0.0613865 10.2207 0.182043 10.8133C0.300582 11.3911 0.477333 11.9605 0.708061 12.5034C0.93244 13.0367 1.21291 13.5532 1.53784 14.0336C1.85959 14.5098 2.22896 14.9564 2.63539 15.3649C3.04286 15.7713 3.49056 16.1396 3.96684 16.4623C4.4484 16.7872 4.96278 17.0666 5.49621 17.292C6.04022 17.5227 6.60963 17.6984 7.18751 17.8159C7.78021 17.9386 8.38984 18 9.00053 18C9.61016 18 10.2198 17.9386 10.8125 17.8159C11.3904 17.6984 11.9598 17.5227 12.5038 17.292C13.0372 17.0666 13.5516 16.7872 14.0321 16.4623C14.5094 16.1396 14.9571 15.7713 15.3646 15.3649C15.771 14.9564 16.1415 14.5098 16.4622 14.0336C16.7871 13.5532 17.0676 13.0367 17.2919 12.5034C17.5216 11.9605 17.6994 11.3911 17.818 10.8133C17.9386 10.2207 18 9.61115 18 8.99947C18 8.38991 17.9386 7.78035 17.818 7.18878Z" fill="#C3CEE2"/>
</svg>
