<svg width="18" height="18" viewBox="0 0 18 18" fill="none" xmlns="http://www.w3.org/2000/svg">
<path id="Github" fill-rule="evenodd" clip-rule="evenodd" d="M8.99944 0C4.02975 0 0 4.04516 0 9.03624C0 13.0278 2.5785 16.4144 6.15544 17.6094C6.60544 17.6924 6.76969 17.4134 6.76969 17.174C6.76969 16.9594 6.76181 16.3913 6.75731 15.6374C4.25362 16.1835 3.72544 14.426 3.72544 14.426C3.3165 13.3824 2.72644 13.1046 2.72644 13.1046C1.90913 12.5438 2.78831 12.5551 2.78831 12.5551C3.69112 12.6189 4.16644 13.4863 4.16644 13.4863C4.96969 14.8671 6.273 14.4684 6.786 14.2368C6.86756 13.6529 7.10044 13.2548 7.3575 13.0289C5.35894 12.8007 3.258 12.0259 3.258 8.56356C3.258 7.57698 3.60844 6.77055 4.18444 6.13861C4.09162 5.9099 3.78281 4.99165 4.27219 3.74755C4.27219 3.74755 5.02819 3.50471 6.74719 4.6737C7.4655 4.47322 8.235 4.37327 9.00056 4.36931C9.765 4.37327 10.5351 4.47322 11.2539 4.6737C12.9718 3.50471 13.7261 3.74755 13.7261 3.74755C14.2172 4.99165 13.9084 5.9099 13.8156 6.13861C14.3927 6.77055 14.7409 7.57698 14.7409 8.56356C14.7409 12.0344 12.6366 12.7985 10.6318 13.0221C10.9547 13.3011 11.2427 13.8523 11.2427 14.6954C11.2427 15.9034 11.2314 16.8775 11.2314 17.174C11.2314 17.4157 11.3934 17.6969 11.8502 17.6083C15.4237 16.411 18 13.0266 18 9.03624C18 4.04516 13.9702 0 8.99944 0Z" fill="#C3CEE2"/>
</svg>
