<svg width="18" height="18" viewBox="0 0 18 18" fill="none" xmlns="http://www.w3.org/2000/svg">
<path id="LinkedIn" fill-rule="evenodd" clip-rule="evenodd" d="M18 18H14.0218V11.6723C14.0218 10.016 13.3995 8.88532 12.031 8.88532C10.9844 8.88532 10.4023 9.64833 10.1313 10.3837C10.0298 10.6476 10.0456 11.0153 10.0456 11.383V18H6.10442C6.10442 18 6.15522 6.79106 6.10442 5.77217H10.0456V7.69123C10.2785 6.85215 11.5379 5.65461 13.5476 5.65461C16.041 5.65461 18 7.41346 18 11.2009V18ZM2.11877 4.24268H2.09337C0.823377 4.24268 0 3.30793 0 2.12307C0 0.915156 0.847719 0 2.14311 0C3.43744 0 4.2333 0.912851 4.2587 2.11961C4.2587 3.30448 3.43744 4.24268 2.11877 4.24268ZM0.454022 5.77217H3.96237V18H0.454022V5.77217Z" fill="#C3CEE2"/>
</svg>
